<?xml version="1.0" standalone="no"?>
<!DOCTYPE svg PUBLIC "-//W3C//DTD SVG 20010904//EN"
 "http://www.w3.org/TR/2001/REC-SVG-20010904/DTD/svg10.dtd">
<svg version="1.0" xmlns="http://www.w3.org/2000/svg"
 width="159.000000pt" height="159.000000pt" viewBox="0 0 159.000000 159.000000"
 preserveAspectRatio="xMidYMid meet">
<metadata>
Created by potrace 1.11, written by Peter Selinger 2001-2013
</metadata>
<g transform="translate(0.000000,159.000000) scale(0.100000,-0.100000)"
fill="#000000" stroke="none">
<path d="M707 1580 c-150 -18 -295 -80 -411 -176 -87 -72 -147 -149 -201 -259
-65 -130 -80 -195 -79 -350 0 -131 11 -199 50 -290 l16 -38 41 41 c40 40 41
42 22 56 -70 49 -70 49 -51 96 123 307 515 449 824 299 69 -34 76 -53 18 -56
-20 0 -46 -9 -57 -19 -27 -24 -25 -78 3 -98 40 -28 63 -19 141 57 50 49 98 85
148 110 79 40 198 73 224 63 19 -7 75 -122 75 -154 0 -60 -43 -103 -213 -215
-65 -44 -131 -96 -152 -122 l-37 -44 36 -44 c20 -25 49 -68 65 -97 23 -42 30
-48 35 -33 14 34 18 138 9 190 -8 42 -7 53 4 57 25 10 35 -44 31 -160 -3 -85
-8 -118 -22 -138 -9 -15 -23 -25 -29 -23 -7 2 -30 35 -52 74 -46 79 -83 133
-93 133 -4 0 -27 -39 -52 -86 -76 -147 -188 -250 -322 -299 -76 -28 -62 -35
82 -42 218 -11 414 59 571 205 111 102 200 254 236 399 22 90 22 266 -1 357
-95 394 -463 653 -859 606z"/>
<path d="M537 975 c-159 -32 -311 -142 -381 -275 -21 -39 -35 -73 -32 -78 2
-4 20 -15 39 -26 l35 -18 66 31 c252 119 508 97 730 -62 l49 -35 51 53 c29 29
93 79 142 111 118 76 171 119 190 155 14 28 13 33 -12 89 -31 69 -37 71 -135
40 -83 -25 -149 -67 -229 -145 -76 -75 -109 -90 -155 -75 -44 15 -66 41 -72
88 -4 33 -1 44 26 74 l31 36 -38 15 c-92 37 -193 44 -305 22z m753 -99 c0 -20
-19 -31 -32 -18 -6 6 -7 15 -4 21 10 16 36 13 36 -3z"/>
<path d="M424 630 c-68 -17 -174 -64 -174 -76 0 -9 88 -45 157 -65 79 -22 253
-43 299 -36 19 3 34 2 34 -3 0 -4 -9 -36 -20 -71 -27 -89 -79 -172 -158 -251
l-66 -68 35 0 c51 0 145 27 203 58 102 55 184 150 261 302 l27 54 -38 33 c-57
49 -188 111 -269 128 -94 20 -205 18 -291 -5z"/>
<path d="M149 482 c-34 -32 -48 -52 -44 -63 5 -15 15 -13 78 12 40 16 81 29
92 29 11 0 26 4 34 9 11 7 5 13 -25 26 -90 38 -81 39 -135 -13z"/>
<path d="M278 425 c-61 -15 -138 -50 -138 -63 0 -13 99 -122 152 -168 72 -61
153 -107 177 -99 36 11 148 141 185 215 53 106 53 106 -51 114 -221 15 -269
15 -325 1z"/>
</g>
</svg>
