<?xml version="1.0" encoding="utf-8"?>
<!-- Generator: Adobe Illustrator 23.0.6, SVG Export Plug-In . SVG Version: 6.00 Build 0)  -->
<svg version="1.1" id="Laag_1" xmlns="http://www.w3.org/2000/svg" xmlns:xlink="http://www.w3.org/1999/xlink" x="0px" y="0px"
	 viewBox="0 0 283.5 283.5" style="enable-background:new 0 0 283.5 283.5;" xml:space="preserve">
<style type="text/css">
	.st0{fill:#0F1010;}
	.st1{fill:#6BA79F;}
	.st2{fill:#FFFFFF;stroke:#FFFFFF;stroke-miterlimit:10;}
	.st3{fill:#FFFFFF;}
</style>
<g>
	<path class="st0" d="M213.4-200.7c-7.2,14.4-18.8,26.6-33,34.3c-14.7,8.1-31.9,11.5-48.6,9.3c-16.1-2.1-31.3-8.9-43.5-19.7
		c-6-5.4-11.2-11.7-15.4-18.6l-7,3.2l4.7-7.2c-3.2-6.2-5.7-12.8-7.2-19.6c-3.6-16-2.2-32.9,4-48.1c6.2-15,16.9-28,30.5-36.9
		c14-9.1,31-13.7,47.7-12.8c16.1,0.8,31.8,6.6,44.6,16.3c13.2,10.1,23,24.1,28,40.1c-0.4-1.2-1.5-1.5-2.4-1.2
		c-0.9,0.2-1.6,1.1-1.3,2.2c-1.2-3.8-2.6-7.5-4.4-11c-6.9-14-18-25.6-31.6-33.2c-13.6-7.5-29.3-10.7-44.7-9.2
		c-15.9,1.6-31.2,8.3-43.1,19c-11.5,10.3-19.7,23.9-23.4,38.8c-3.8,15.5-2.6,31.9,3.2,46.7c5.7,14.5,16.1,27.1,29.1,35.6
		c13,8.4,28.3,12.8,43.8,12.5c16-0.4,31.8-6,44.6-15.7c12.2-9.3,21.4-22.4,26.1-37c4.9-15.1,5-31.3,0.3-46.5
		c0.4,1.1,1.4,1.5,2.3,1.2c0.9-0.2,1.6-1.1,1.3-2.2c1.2,3.9,2.1,8,2.7,12C223.4-232.1,220.8-215.4,213.4-200.7z"/>
	<g>
		<path class="st1" d="M214.4-212.9c-4.8,14.6-14,27.7-26.1,37c-12.8,9.7-28.5,15.3-44.6,15.7c-15.5,0.4-30.8-4-43.8-12.5
			c-13-8.5-23.4-21.1-29.1-35.6c-5.9-14.8-7.1-31.2-3.2-46.7c3.7-14.9,11.9-28.6,23.4-38.8c11.9-10.6,27.2-17.4,43.1-19
			c15.4-1.5,31.2,1.7,44.7,9.2c13.6,7.5,24.8,19.2,31.6,33.2c1.8,3.5,3.2,7.2,4.4,11C219.4-244.2,219.3-227.9,214.4-212.9z"/>
		<path class="st1" d="M214.7-259.3c-0.3-1.1,0.4-2,1.3-2.2c0.2,0.6,0.4,1.1,0.5,1.7s0.3,1.2,0.5,1.7
			C216.2-257.9,215.1-258.2,214.7-259.3z"/>
		<g>
			<path class="st0" d="M217.1-258.1c-0.9,0.2-2-0.1-2.3-1.2c-0.3-1.1,0.4-2,1.3-2.2c0.9-0.3,2,0.1,2.4,1.2
				C218.7-259.2,218-258.3,217.1-258.1z"/>
		</g>
	</g>
	<g id="_x33_EUcCt_3_">
		<g>
			<path class="st2" d="M64.6-189.2c-2.3-2.3-2.5-3.4-0.7-6c3.5-5.3,7.6-10.1,12.4-14.2c0.9-0.8,1.8-1.6,2.9-2.5
				c-3.2-2.2-6.3-4.3-9.3-6.3c11.4-36.8,57.7-52.7,89.9-30.9c-0.5,0.8-0.9,1.5-1.5,2.4c-0.7-0.3-1.3-0.5-1.9-0.7
				c-3.2-1-6.6,0.4-8.3,3.5c-1.5,2.8-0.8,6.5,1.7,8.6c2.5,2.1,6.3,2.2,8.8,0.2c0.8-0.7,1.5-1.5,2.2-2.3c9-10.6,20.2-17.3,33.8-20.3
				c1.6-0.4,3.2-0.6,4.8-0.8c1.9-0.3,3.5,0.3,4.3,2.1c1.7,3.6,3.5,7.2,4.9,11c1,2.9,0.2,5.8-1.8,8.4c-2.7,3.5-6,6.5-9.6,8.9
				c-5.2,3.5-10.6,6.8-15.8,10.4c-5,3.4-9.3,7.7-12.7,13c5.5,6,10,12.7,13.4,20.2c2.6-9,2.6-17.9,0.6-27.1c0.9-0.3,1.7-0.5,2.5-0.7
				c0.2,0.3,0.5,0.5,0.6,0.7c2.1,9.4,1.9,18.8-0.5,28.1c-0.1,0.5-0.2,1-0.5,1.3c-0.7,0.7-1.5,1.5-2.3,1.8c-1.2,0.4-2.2-0.3-2.8-1.4
				c-0.3-0.6-0.5-1.2-0.8-1.8c-2.9-6.6-6.7-12.7-11.9-18.3c-0.8,1.4-1.5,2.6-2.1,3.8c-2.5,5.5-5.3,10.8-8.9,15.7
				c-11.8,15.9-27.7,23.5-47.4,23.4c-0.5,0-0.9-0.1-1.4-0.1c-1.9-1-2.3-2.5-1.3-4.6c13-8.2,22-19.7,26.1-35
				c-4.2-0.2-8.2-0.3-12.2-0.6c-2.4-0.2-4.8-0.4-7.1-0.8c-15.7-2.8-30,0.8-42.9,9.9C68.1-189.3,66.7-188.5,64.6-189.2z M81.7-214.1
				c30-17,58-14.8,84.5,6.6c2.1-2.4,4-4.8,6.3-7c2.3-2.2,4.9-4.3,7.5-6.2c3-2.2,6.2-4.1,9.4-6.1c5.3-3.3,10.4-6.8,14.4-11.7
				c1.9-2.3,2.4-4.7,1.3-7.5c-1.2-2.7-2.4-5.4-3.7-8.1c-0.3-0.6-0.7-1-1.1-1.5c-10.9,1.4-20.5,5.2-28.8,12.1
				c-3.4,2.8-6.3,6.1-9.3,9.3c-3.3,3.6-7.9,4.7-12.2,2.6c-4.1-1.9-6.3-6.3-5.5-11c0.6-3.8,3-6.3,6.5-7.8
				c-26.1-14.1-66.8-1.1-77.3,31C76.4-217.5,79.2-215.7,81.7-214.1z M135.8-202.4c-3.5,17.2-12.4,30.3-26.9,40.3
				c4.9,0.1,9-0.5,13.1-1.4c14-3.1,24.8-10.9,32.5-22.7c3.7-5.7,6.7-11.9,9.9-17.8c-21.6-21.6-56.9-23.2-78.9-8
				C101.4-204.2,118-201.2,135.8-202.4z M66-192.1c9-6.4,19-10.3,30.3-11.9c-5-2.2-9.5-4.1-14.1-6.1C75.6-205.3,70.1-199.4,66-192.1
				z"/>
		</g>
	</g>
	<rect x="187" y="-246" transform="matrix(0.9393 -0.3432 0.3432 0.9393 95.207 50.0643)" class="st3" width="4.1" height="4.1"/>
</g>
<g>
	<g>
		
			<ellipse transform="matrix(0.7071 -0.7071 0.7071 0.7071 -58.6031 141.9842)" class="st1" cx="142.1" cy="141.7" rx="78.3" ry="78.3"/>
	</g>
	<g id="_x33_EUcCt_2_">
		<g>
			<path class="st2" d="M64.9,189.1c-2.3-2.3-2.5-3.4-0.7-6c3.5-5.3,7.6-10.1,12.4-14.2c0.9-0.8,1.8-1.6,2.9-2.5
				c-3.2-2.2-6.3-4.3-9.3-6.3c11.4-36.8,57.7-52.7,89.9-30.9c-0.5,0.8-0.9,1.5-1.5,2.4c-0.7-0.3-1.3-0.5-1.9-0.7
				c-3.2-1-6.6,0.4-8.3,3.5c-1.5,2.8-0.8,6.5,1.7,8.6c2.5,2.1,6.3,2.2,8.8,0.2c0.8-0.7,1.5-1.5,2.2-2.3c9-10.6,20.2-17.3,33.8-20.3
				c1.6-0.4,3.2-0.6,4.8-0.8c1.9-0.3,3.5,0.3,4.3,2.1c1.7,3.6,3.5,7.2,4.9,11c1,2.9,0.2,5.8-1.8,8.4c-2.7,3.5-6,6.5-9.6,8.9
				c-5.2,3.5-10.6,6.8-15.8,10.4c-5,3.4-9.3,7.7-12.7,13c5.5,6,10,12.7,13.4,20.2c2.6-9,2.6-17.9,0.6-27.1c0.9-0.3,1.7-0.5,2.5-0.7
				c0.2,0.3,0.5,0.5,0.6,0.7c2.1,9.4,1.9,18.8-0.5,28.1c-0.1,0.5-0.2,1-0.5,1.3c-0.7,0.7-1.5,1.5-2.3,1.8c-1.2,0.4-2.2-0.3-2.8-1.4
				c-0.3-0.6-0.5-1.2-0.8-1.8c-2.9-6.6-6.7-12.7-11.9-18.3c-0.8,1.4-1.5,2.6-2.1,3.8c-2.5,5.5-5.3,10.8-8.9,15.7
				c-11.8,15.9-27.7,23.5-47.4,23.4c-0.5,0-0.9-0.1-1.4-0.1c-1.9-1-2.3-2.5-1.3-4.6c13-8.2,22-19.7,26.1-35
				c-4.2-0.2-8.2-0.3-12.2-0.6c-2.4-0.2-4.8-0.4-7.1-0.8c-15.7-2.8-30,0.8-42.9,9.9C68.4,189,67,189.9,64.9,189.1z M82.1,164.2
				c30-17,58-14.8,84.5,6.6c2.1-2.4,4-4.8,6.3-7c2.3-2.2,4.9-4.3,7.5-6.2c3-2.2,6.2-4.1,9.4-6.1c5.3-3.3,10.4-6.8,14.4-11.7
				c1.9-2.3,2.4-4.7,1.3-7.5c-1.2-2.7-2.4-5.4-3.7-8.1c-0.3-0.6-0.7-1-1.1-1.5c-10.9,1.4-20.5,5.2-28.8,12.1
				c-3.4,2.8-6.3,6.1-9.3,9.3c-3.3,3.6-7.9,4.7-12.2,2.6c-4.1-1.9-6.3-6.3-5.5-11c0.6-3.8,3-6.3,6.5-7.8
				c-26.1-14.1-66.8-1.1-77.3,31C76.8,160.9,79.6,162.7,82.1,164.2z M136.1,175.9c-3.5,17.2-12.4,30.3-26.9,40.3
				c4.9,0.1,9-0.5,13.1-1.4c14-3.1,24.8-10.9,32.5-22.7c3.7-5.7,6.7-11.9,9.9-17.8c-21.6-21.6-56.9-23.2-78.9-8
				C101.7,174.2,118.3,177.2,136.1,175.9z M66.4,186.2c9-6.4,19-10.3,30.3-11.9c-5-2.2-9.5-4.1-14.1-6.1
				C75.9,173.1,70.5,178.9,66.4,186.2z"/>
		</g>
	</g>
	
		<rect x="187.4" y="132.3" transform="matrix(0.9393 -0.3432 0.3432 0.9393 -34.6175 73.1624)" class="st3" width="4.1" height="4.1"/>
</g>
</svg>
